#!OML:ASF H:\Terrain\Patient Classification 1\Walking\liu\liu.ASF
:FULLY-SPECIFIED
:DEGREES
189
root 9.17262 15.9373 3.50101 9.1643 -4.68768 -4.71972
lowerback -7.22042 4.37794 -0.389321
upperback -1.55407 5.7981 2.34162
thorax 2.14256 2.89126 3.13852
lowerneck -16.7946 -6.80542 -15.0379
upperneck 19.1918 -9.17758 15.9864
head 10.3989 -3.69756 6.95172
rclavicle 3.15571e-015 1.78906e-015
rhumerus -24.269 28.4762 -83.4476
rradius 52.6249
rwrist -30.2894
rhand -33.6855 -25.016
rfingers 7.12502
rthumb -6.87601 -54.8844
lclavicle 3.15571e-015 1.78906e-015
lhumerus -58.2777 14.1846 61.037
lradius 12.8801
lwrist -25.9746
lhand -10.8892 -27.36
lfingers 7.12502
lthumb 15.1272 2.06715
rfemur 22.996 3.33865 24.5294
rtibia 12.4991
rfoot 7.43135 2.36636
rtoes -21.245
lfemur -51.621 7.84652 -18.9282
ltibia 42.7141
lfoot -0.668967 3.97665
ltoes -6.26966
190
root 9.21567 15.9558 3.72807 9.00059 -4.77606 -4.04462
lowerback -6.71677 4.39555 -0.981896
upperback -1.73653 5.87565 2.12271
thorax 1.63441 2.93738 3.19007
lowerneck -16.6502 -6.85777 -15.1376
upperneck 19.2459 -9.28892 16.1322
head 10.4249 -3.74768 7.01151
rclavicle 1.74993e-014 0
rhumerus -25.3572 27.8679 -83.7393
rradius 52.3178
rwrist -28.8868
rhand -31.798 -27.2935
rfingers 7.12502
rthumb -5.05369 -57.2132
lclavicle 1.74993e-014 0
lhumerus -58.1571 14.8396 60.3826
lradius 12.5783
lwrist -27.231
lhand -11.1889 -27.9188
lfingers 7.12502
lthumb 14.8385 1.52984
rfemur 21.0827 2.42668 23.1212
rtibia 17.378
rfoot 9.26555 2.64451
rtoes -21.7434
lfemur -51.2402 7.72368 -19.7745
ltibia 43.7609
lfoot -1.62878 3.91813
ltoes -2.63787
191
root 9.25829 15.9768 3.9525 8.7578 -4.83586 -3.20006
lowerback -6.42094 4.37286 -1.67878
upperback -1.67956 5.89637 1.85972
thorax 1.48541 2.94842 3.28185
lowerneck -16.5079 -6.88038 -15.2122
upperneck 19.0128 -9.31726 16.2358
head 10.33 -3.76368 7.05117
rclavicle -1.28092e-014 7.95139e-016
rhumerus -26.1404 28.0691 -84.1731
rradius 51.9265
rwrist -29.2904
rhand -32.1426 -27.433
rfingers 7.12502
rthumb -5.38638 -57.3446
lclavicle -1.28092e-014 7.95139e-016
lhumerus -57.7114 15.4979 60.0527
lradius 12.4001
lwrist -27.8806
lhand -11.1771 -28.4
lfingers 7.12502
lthumb 14.8498 1.04782
rfemur 19.1647 1.15616 21.4099
rtibia 22.2455
rfoot 10.5753 2.10846
rtoes -18.1012
lfemur -50.6255 7.61581 -20.8176
ltibia 44.5064
lfoot -2.62375 3.60497
ltoes 0.654966
192
root 9.29838 15.9918 4.15534 8.41778 -4.91484 -2.36892
lowerback -5.97117 4.34189 -2.36517
upperback -1.55121 5.89725 1.63175
thorax 1.32284 2.94944 3.39274
lowerneck -16.4798 -6.87492 -15.1395
upperneck 18.895 -9.27129 16.0461
head 10.259 -3.75774 6.96715
rclavicle -1.73564e-014 -1.09332e-014
rhumerus -26.8278 28.3832 -84.5599
rradius 51.502
rwrist -29.4119
rhand -32.0968 -25.7837
rfingers 7.12502
rthumb -5.34222 -55.6963
lclavicle -1.73564e-014 -1.09332e-014
lhumerus -57.1103 15.9757 60.2549
lradius 12.547
lwrist -27.6421
lhand -10.5468 -28.0865
lfingers 7.12502
lthumb 15.457 1.3155
rfemur 17.3149 0.285166 19.9252
rtibia 27.0763
rfoot 11.6691 1.12842
rtoes -15.0782
lfemur -49.6171 7.45665 -21.8241
ltibia 44.8861
lfoot -3.62054 3.49256
ltoes 0.694837
193
root 9.33569 16.0208 4.33597 8.25485 -5.0943 -1.49675
lowerback -5.41745 4.36173 -3.12074
upperback -1.58926 5.95926 1.37809
thorax 0.921171 2.98914 3.49992
lowerneck -16.3895 -6.90101 -15.0378
upperneck 18.8876 -9.27347 15.744
head 10.2159 -3.78495 6.83262
rclavicle 3.35822e-014 -1.98785e-015
rhumerus -27.7163 28.4469 -84.9892
rradius 51.1566
rwrist -29.1369
rhand -31.5609 -26.0339
rfingers 7.12502
rthumb -4.82471 -55.959
lclavicle 3.35822e-014 -1.98785e-015
lhumerus -56.3319 15.8407 61.3083
lradius 12.8373
lwrist -26.2509
lhand -10.5195 -27.6474
lfingers 7.12502
lthumb 15.4833 1.75263
rfemur 15.1049 -0.166984 18.5625
rtibia 31.9056
rfoot 12.5489 0.98332
rtoes -17.3749
lfemur -48.6843 7.12423 -22.7766
ltibia 44.9265
lfoot -4.47495 3.84313
ltoes -0.609889
194
root 9.37749 16.0692 4.53103 8.20526 -5.34874 -0.485173
lowerback -5.21562 4.35921 -3.96245
upperback -1.55424 5.99786 1.08865
thorax 0.785981 3.01125 3.65174
lowerneck -16.4341 -6.96599 -15.1179
upperneck 18.8962 -9.30431 15.6
head 10.2288 -3.81748 6.78575
rclavicle 4.19436e-014 2.08724e-014
rhumerus -28.3768 28.6716 -85.4215
rradius 50.542
rwrist -28.9683
rhand -31.2623 -26.9772
rfingers 7.12502
rthumb -4.53642 -56.9086
lclavicle 4.19436e-014 2.08724e-014
lhumerus -55.4817 15.293 63.0405
lradius 13.3232
lwrist -24.2923
lhand -11.3323 -27.5365
lfingers 7.12502
lthumb 14.7003 1.92236
rfemur 12.6942 -0.86976 16.8124
rtibia 36.6558
rfoot 13.3004 0.989324
rtoes -21.0687
lfemur -47.7167 6.66292 -23.8162
ltibia 44.7533
lfoot -5.33038 4.26026
ltoes -0.115909
195
root 9.42128 16.1038 4.73295 8.03682 -5.77554 0.527714
lowerback -5.08914 4.38598 -4.7979
upperback -1.34972 6.07774 0.815289
thorax 0.861663 3.04502 3.83361
lowerneck -16.7072 -7.01133 -15.4401
upperneck 18.8421 -9.30076 15.8636
head 10.2942 -3.8023 6.93927
rclavicle 1.54928e-014 -1.39149e-014
rhumerus -28.6925 29.078 -85.7463
rradius 49.8833
rwrist -28.8848
rhand -31.5521 -27.9053
rfingers 7.12502
rthumb -4.81625 -57.8306
lclavicle 1.54928e-014 -1.39149e-014
lhumerus -54.5357 14.6421 65.028
lradius 14.0246
lwrist -21.9091
lhand -11.3745 -26.6566
lfingers 7.12502
lthumb 14.6597 2.80516
rfemur 10.5187 -1.33711 15.0911
rtibia 41.1488
rfoot 13.8588 -0.0396903
rtoes -22.5495
lfemur -46.5047 6.49969 -24.9305
ltibia 44.525
lfoot -6.27242 4.48853
ltoes 2.39438
